<?xml version="1.0" encoding="utf-8"?>
<svg width="258.64mm" height="194.36mm" viewBox="0 0 733.16 267.46" xmlns="http://www.w3.org/2000/svg">
  <defs>
    <style>
      .cls-1 {
        fill: #161b22;
      }

      .cls-2 {
        fill: none;
        stroke: #a6a6a6;
        stroke-miterlimit: 10;
        stroke-width: 2.28px;
      }
    </style>
  </defs>
  <rect class="cls-2" x="265.63" y="38.69" width="38.27" height="35.43" rx=".95" ry=".95"/>
  <rect class="cls-2" x="265.63" y="86.89" width="38.27" height="35.43" rx=".95" ry=".95"/>
  <rect class="cls-2" x="265.63" y="135" width="38.27" height="35.43" rx=".95" ry=".95"/>
  <rect class="cls-2" x="214.63" y="31.09" width="38.27" height="35.43" rx=".95" ry=".95"/>
  <rect class="cls-2" x="214.63" y="79.29" width="38.27" height="35.43" rx=".95" ry=".95"/>
  <rect class="cls-2" x="214.63" y="127.49" width="38.27" height="35.43" rx=".95" ry=".95"/>
  <rect class="cls-2" x="163.63" y="7.08" width="38.27" height="35.43" rx=".95" ry=".95"/>
  <rect class="cls-2" x="163.63" y="55.18" width="38.27" height="35.43" rx=".95" ry=".95"/>
  <rect class="cls-2" x="163.63" y="103.38" width="38.27" height="35.43" rx=".95" ry=".95"/>
  <rect class="cls-2" x="200.41" y="185.94" width="38.27" height="35.43" rx=".95" ry=".95"/>
  <rect class="cls-2" x="105.36" y="35.97" width="38.27" height="35.43" rx="0.95" ry="0.95" transform="matrix(0.997564, -0.069756, 0.069756, 0.997564, -3.44, 8.81)"/>
  <rect class="cls-2" x="108.76" y="84.07" width="38.27" height="35.43" rx="0.95" ry="0.95" transform="matrix(0.997564, -0.069756, 0.069756, 0.997564, -6.79, 9.17)"/>
  <rect class="cls-2" x="112.06" y="132.08" width="38.27" height="35.43" rx="0.95" ry="0.95" transform="matrix(0.997564, -0.069756, 0.069756, 0.997564, -10.13, 9.52)"/>
  <rect class="cls-2" x="48.03" y="79.99" width="38.27" height="35.43" rx="0.95" ry="0.95" transform="matrix(0.984808, -0.173648, 0.173648, 0.984808, -15.95, 13.15)"/>
  <rect class="cls-2" x="56.33" y="127.5" width="38.27" height="35.43" rx="0.95" ry="0.95" transform="matrix(0.984808, -0.173648, 0.173648, 0.984808, -24.07, 15.31)"/>
  <rect class="cls-2" x="64.73" y="174.9" width="38.27" height="35.43" rx="0.95" ry="0.95" transform="matrix(0.984808, -0.173648, 0.173648, 0.984808, -32.169998, 17.49)"/>
  <rect class="cls-2" x="258.34" y="192.31" width="35.43" height="38.27" rx="0.95" ry="0.95" transform="matrix(0.965926, 0.258819, -0.258819, 0.965926, 0.003515, 0.002425)" style="transform-box: fill-box; transform-origin: 50% 50%;"/>
  <rect class="cls-2" x="310.56" y="214.04" width="35.43" height="38.27" rx="0.95" ry="0.95" transform="matrix(0.866025, 0.5, -0.5, 0.866025, 0.007985, -0.001904)" style="transform-box: fill-box; transform-origin: 50% 50%;"/>
  <rect class="cls-2" x="10.65" y="162.48" width="38.27" height="35.43" rx="0.95" ry="0.95" transform="matrix(0.984808, -0.173648, 0.173648, 0.984808, -30.84, 7.91)"/>
  <rect class="cls-2" x="429.03" y="38.69" width="38.27" height="35.43" rx=".95" ry=".95"/>
  <rect class="cls-2" x="429.03" y="86.89" width="38.27" height="35.43" rx=".95" ry=".95"/>
  <rect class="cls-2" x="429.03" y="135" width="38.27" height="35.43" rx=".95" ry=".95"/>
  <rect class="cls-2" x="480.03" y="31.09" width="38.27" height="35.43" rx=".95" ry=".95"/>
  <rect class="cls-2" x="480.03" y="79.29" width="38.27" height="35.43" rx=".95" ry=".95"/>
  <rect class="cls-2" x="480.03" y="127.49" width="38.27" height="35.43" rx=".95" ry=".95"/>
  <rect class="cls-2" x="531.03" y="7.08" width="38.27" height="35.43" rx=".95" ry=".95"/>
  <rect class="cls-2" x="531.03" y="55.18" width="38.27" height="35.43" rx=".95" ry=".95"/>
  <rect class="cls-2" x="531.03" y="103.38" width="38.27" height="35.43" rx=".95" ry=".95"/>
  <rect class="cls-2" x="494.25" y="185.94" width="38.27" height="35.43" rx=".95" ry=".95"/>
  <rect class="cls-2" x="590.72" y="34.56" width="35.43" height="38.27" rx="0.95" ry="0.95" transform="matrix(0.069756, -0.997564, 0.997564, 0.069756, 512.440002, 656.900024)"/>
  <rect class="cls-2" x="587.32" y="82.66" width="35.43" height="38.27" rx="0.95" ry="0.95" transform="matrix(0.069756, -0.997564, 0.997564, 0.069756, 461.290009, 698.25)"/>
  <rect class="cls-2" x="584.02" y="130.66" width="35.43" height="38.27" rx="0.95" ry="0.95" transform="matrix(0.069756, -0.997564, 0.997564, 0.069756, 410.329987, 739.609985)"/>
  <rect class="cls-2" x="648.05" y="78.57" width="35.43" height="38.27" rx="0.95" ry="0.95" transform="matrix(0.173648, -0.984808, 0.984808, 0.173648, 453.929993, 736.390015)"/>
  <rect class="cls-2" x="639.75" y="126.08" width="35.43" height="38.27" rx="0.95" ry="0.95" transform="matrix(0.173648, -0.984808, 0.984808, 0.173648, 400.290009, 767.469971)"/>
  <rect class="cls-2" x="631.35" y="173.48" width="35.43" height="38.27" rx="0.95" ry="0.95" transform="matrix(0.173648, -0.984808, 0.984808, 0.173648, 346.670013, 798.369995)"/>
  <rect class="cls-2" x="437.73" y="193.73" width="38.27" height="35.43" rx="0.95" ry="0.95" transform="matrix(0.965926, -0.258819, 0.258819, 0.965926, -39.16, 125.459999)"/>
  <rect class="cls-2" x="385.52" y="215.45" width="38.27" height="35.43" rx="0.95" ry="0.95" transform="matrix(0.866025, -0.5, 0.5, 0.866025, -62.369999, 233.570007)"/>
  <rect class="cls-2" x="685.43" y="161.06" width="35.43" height="38.27" rx="0.95" ry="0.95" transform="matrix(0.173648, -0.984808, 0.984808, 0.173648, 403.589996, 841.369995)"/>
  <text style="white-space: pre; fill: rgb(51, 51, 51); font-family: Arial, sans-serif; font-size: 14.7px; transform-box: fill-box; transform-origin: 50% 50%;" transform="matrix(1.103192, -0.194522, 0.20288, 1.150589, 0.61562, 3.863623)" x="60.541" y="99.989">Q</text>
  <text style="white-space: pre; fill: rgb(51, 51, 51); font-family: Arial, sans-serif; font-size: 14.7px;" transform="matrix(1.103192, -0.194522, 0.20288, 1.150589, -15.483, 48.0233)" x="60.541" y="99.989">A</text>
  <text style="white-space: pre; fill: rgb(51, 51, 51); font-family: Arial, sans-serif; font-size: 14.7px;" transform="matrix(1.103192, -0.194522, 0.20288, 1.150589, -7.987656, 95.088326)" x="60.541" y="99.989">Z</text>
  <text style="white-space: pre; fill: rgb(51, 51, 51); font-family: Arial, sans-serif; font-size: 14.7px; transform-origin: 66.259px 94.942px;" transform="matrix(1.117482, -0.078142, 0.0815, 1.165493, 56.961864, -39.728931)" x="60.541" y="99.989">W</text>
  <text style="white-space: pre; fill: rgb(51, 51, 51); font-family: Arial, sans-serif; font-size: 14.7px; transform-origin: 66.259px 94.942px;" transform="matrix(1.117482, -0.078142, 0.0815, 1.165493, 61.337856, 7.378838)" x="60.541" y="99.989">R</text>
  <text style="white-space: pre; fill: rgb(51, 51, 51); font-family: Arial, sans-serif; font-size: 14.7px; transform-origin: 66.259px 94.942px;" transform="matrix(1.117482, -0.078142, 0.0815, 1.165493, 64.980354, 54.787022)" x="60.541" y="99.989">X</text>
  <text style="white-space: pre; fill: rgb(51, 51, 51); font-family: Arial, sans-serif; font-size: 14.7px; transform-origin: 66.259px 94.942px;" transform="matrix(1.120211, 0, 0.000001, 1.168339, 119.274513, -68.639816)" x="60.541" y="99.989">F</text>
  <text style="white-space: pre; fill: rgb(51, 51, 51); font-family: Arial, sans-serif; font-size: 14.7px; transform-origin: 66.259px 94.942px;" transform="matrix(1.120211, 0, 0.000001, 1.168339, 117.396011, -22.721914)" x="60.541" y="99.989">S</text>
  <text style="white-space: pre; fill: rgb(51, 51, 51); font-family: Arial, sans-serif; font-size: 14.7px; transform-origin: 66.259px 94.942px;" transform="matrix(1.120211, 0, 0.000001, 1.168339, 116.378235, 25.27108)" x="60.541" y="99.989">C</text>
  <text style="white-space: pre; fill: rgb(51, 51, 51); font-family: Arial, sans-serif; font-size: 14.7px;" transform="matrix(1.120211, 0, 0.000001, 1.168339, 159.534844, -61.699713)" x="60.541" y="99.989">P</text>
  <text style="white-space: pre; fill: rgb(51, 51, 51); font-family: Arial, sans-serif; font-size: 14.7px;" transform="matrix(1.120211, 0, 0.000001, 1.168339, 160.576797, -15.212528)" x="60.541" y="99.989">T</text>
  <text style="white-space: pre; fill: rgb(51, 51, 51); font-family: Arial, sans-serif; font-size: 14.7px;" transform="matrix(1.120211, 0, 0.000001, 1.168339, 159.996445, 35.597183)" x="60.541" y="99.989">V</text>
  <text style="white-space: pre; fill: rgb(51, 51, 51); font-family: Arial, sans-serif; font-size: 14.7px;" transform="matrix(1.120211, 0, 0.000001, 1.168339, 211.898346, -55.351318)" x="60.541" y="99.989">G</text>
  <text style="white-space: pre; fill: rgb(51, 51, 51); font-family: Arial, sans-serif; font-size: 14.7px;" transform="matrix(1.120211, 0, 0.000001, 1.168339, 211.498093, -6.658763)" x="60.541" y="99.989">D</text>
  <text style="white-space: pre; fill: rgb(51, 51, 51); font-family: Arial, sans-serif; font-size: 14.7px;" transform="matrix(1.120211, 0, 0.000001, 1.168339, 212.00708, 41.519379)" x="60.541" y="99.989">B</text>
  <text style="white-space: pre; fill: rgb(51, 51, 51); font-family: Arial, sans-serif; font-size: 14.7px;" transform="matrix(1.120211, 0, 0.000001, 1.168339, 375.690796, -55.611862)" x="60.541" y="99.989">J</text>
  <text style="white-space: pre; fill: rgb(51, 51, 51); font-family: Arial, sans-serif; font-size: 14.7px;" transform="matrix(1.120211, 0, 0.000001, 1.168339, 375.191559, -7.157793)" x="60.541" y="99.989">H</text>
  <text style="white-space: pre; fill: rgb(51, 51, 51); font-family: Arial, sans-serif; font-size: 14.7px;" transform="matrix(1.120211, 0, 0.000001, 1.168339, 376.152405, 41.68504)" x="60.541" y="99.989">K</text>
  <text style="white-space: pre; fill: rgb(51, 51, 51); font-family: Arial, sans-serif; font-size: 14.7px;" transform="matrix(1.120211, 0, 0.000001, 1.168339, 426.482056, -62.95216)" x="60.541" y="99.989">L</text>
  <text style="white-space: pre; fill: rgb(51, 51, 51); font-family: Arial, sans-serif; font-size: 14.7px;" transform="matrix(1.120211, 0, 0.000001, 1.168339, 423.444061, -14.880183)" x="60.541" y="99.989">M</text>
  <text style="white-space: pre; fill: rgb(51, 51, 51); font-family: Arial, sans-serif; font-size: 14.7px;" transform="matrix(1.120211, 0, 0.000001, 1.168339, 426.943634, 34.344738)" x="60.541" y="99.989">N</text>
  <text style="white-space: pre; fill: rgb(51, 51, 51); font-family: Arial, sans-serif; font-size: 14.7px;" transform="matrix(1.120211, 0, 0.000001, 1.168339, 476.425995, -85.777245)" x="60.541" y="99.989">U</text>
  <text style="white-space: pre; fill: rgb(51, 51, 51); font-family: Arial, sans-serif; font-size: 14.7px;" transform="matrix(1.120211, 0, 0.000001, 1.168339, 477.467957, -39.290054)" x="60.541" y="99.989">E</text>
  <text style="white-space: pre; fill: rgb(51, 51, 51); font-family: Arial, sans-serif; font-size: 14.7px;" transform="matrix(1.120211, 0, 0.000001, 1.168339, 479.550476, 8.963473)" x="60.541" y="99.989">,</text>
  <text style="white-space: pre; fill: rgb(51, 51, 51); font-family: Arial, sans-serif; font-size: 14.7px; transform-box: fill-box; transform-origin: 50% 50%;" transform="matrix(1.117482, 0.078143, -0.081498, 1.165493, 543.193726, -38.608826)" x="60.541" y="99.989">Y</text>
  <text style="white-space: pre; fill: rgb(51, 51, 51); font-family: Arial, sans-serif; font-size: 14.7px; transform-box: fill-box; transform-origin: 50% 50%;" transform="matrix(1.117482, 0.078143, -0.081498, 1.165493, 543.160706, 6.472537)" x="60.541" y="99.989">I</text>
  <text style="white-space: pre; fill: rgb(51, 51, 51); font-family: Arial, sans-serif; font-size: 14.7px; transform-box: fill-box; transform-origin: 50% 50%;" transform="matrix(1.117482, 0.078143, -0.081498, 1.165493, 538.255188, 54.355911)" x="60.541" y="99.989">.</text>
  <text style="white-space: pre; fill: rgb(51, 51, 51); font-family: Arial, sans-serif; font-size: 14.7px; transform-origin: 65.443px 94.942px;" transform="matrix(1.103192, 0.194524, -0.202878, 1.150589, 599.954956, 1.711153)" x="60.541" y="99.989">;</text>
  <text style="white-space: pre; fill: rgb(51, 51, 51); font-family: Arial, sans-serif; font-size: 14.7px; transform-origin: 62.584px 94.942px;" transform="matrix(1.103192, 0.194524, -0.202878, 1.150589, 591.123047, 51.412514)" x="60.541" y="99.989">O</text>
  <text style="white-space: pre; fill: rgb(51, 51, 51); font-family: Arial, sans-serif; font-size: 14.7px; transform-origin: 62.584px 94.942px;" transform="matrix(1.103192, 0.194524, -0.202878, 1.150589, 587.351196, 96.092361)" x="60.541" y="99.989">/</text>
  <text style="font-family: Arial, sans-serif; font-size: 14.7px; font-weight: 700; white-space: pre;" transform="matrix(1.103192, -0.194522, 0.20288, 1.150589, -65.703644, 84.264351)" x="60.541" y="99.989">♾️</text>
  <text style="fill: rgb(51, 51, 51); font-family: Arial, sans-serif; font-size: 14.7px; font-weight: 700; white-space: pre; transform-origin: 62.584px 94.942px;" transform="matrix(1.103192, 0.194524, -0.202878, 1.150589, 635.798279, 83.206589)" x="60.541" y="99.989">♡</text>
  <text style="white-space: pre; fill: rgb(51, 51, 51); font-family: Arial, sans-serif; font-size: 14.7px; transform-origin: 66.259px 94.942px;" transform="matrix(1.117482, -0.078142, 0.0815, 1.165493, 71.917625, 12.777384)" y="99.989" x="60.541"/>
  <text style="fill: rgb(226, 39, 39); font-family: Arial, sans-serif; font-size: 8.56084px; font-weight: 700; line-height: 17.8065px; white-space: pre; transform-origin: 66.259px 94.942px;" transform="matrix(1.103192, -0.194522, 0.202881, 1.15059, 23.916887, 54.795528)" x="60.541" y="99.989">⌃</text>
  <text style="fill: rgb(235, 42, 42); font-family: Arial, sans-serif; font-size: 8.55916px; font-weight: 700; line-height: 20.542px; white-space: pre; transform-origin: 66.259px 94.942px;" transform="matrix(1.117482, -0.078142, 0.0815, 1.165493, 74.55899, 12.753929)" x="60.541" y="99.989">⌥</text>
  <text style="fill: rgb(245, 37, 37); font-family: Arial, sans-serif; font-size: 8.55916px; white-space: pre;" transform="matrix(1.120211, 0, 0.000001, 1.168339, 120.428719, -31.45932)" x="60.541" y="99.989">⌘</text>
  <text style="fill: rgb(245, 37, 37); font-family: Arial, sans-serif; font-size: 8.55916px; white-space: pre;" transform="matrix(1.120211, 0, 0.000001, 1.168339, 489.103149, -30.301962)" x="60.541" y="99.989">⌘</text>
  <text style="fill: rgb(235, 42, 42); font-family: Arial, sans-serif; font-size: 8.55916px; font-weight: 700; line-height: 20.542px; white-space: pre; transform-origin: 66.259px 94.942px;" transform="matrix(1.117482, 0.078142, -0.081498, 1.165493, 549.42627, 14.986774)" x="60.541" y="99.989">⌥</text>
  <text style="fill: rgb(226, 39, 39); font-family: Arial, sans-serif; font-size: 8.56084px; font-weight: 700; line-height: 17.8065px; white-space: pre; transform-origin: 66.259px 94.942px;" transform="matrix(1.103192, 0.194523, -0.202879, 1.15059, 604.597229, 60.120438)" x="60.541" y="99.989">⌃</text>
  <text style="fill: rgb(51, 51, 51); font-family: Arial, sans-serif; font-size: 8.64681px; white-space: pre; transform-box: fill-box; transform-origin: 19.613px 8.25961px;" transform="matrix(1.082041, 0.289933, -0.302387, 1.12853, 203.577942, 116.832664)" x="60.541" y="99.989">space</text>
  <text style="fill: rgb(51, 51, 51); font-family: Arial, sans-serif; font-size: 8.64681px; white-space: pre; transform-origin: 80.154px 100.448px;" transform="matrix(1.120211, 0.000001, 0.000002, 1.168339, 441.850555, 108.026215)" x="60.541" y="99.989">delete</text>
  <text style="fill: rgb(51, 51, 51); font-family: Arial, sans-serif; font-size: 8.64681px; white-space: pre; transform-origin: 80.154px 100.448px;" transform="matrix(0.970132, -0.560106, 0.584171, 1.01181, 335.673889, 130.442566)" x="60.541" y="99.989">return</text>
  <text style="fill: rgb(51, 51, 51); font-family: Arial, sans-serif; font-size: 8.64681px; white-space: pre; transform-origin: 80.154px 100.448px;" transform="matrix(0.970132, 0.560106, -0.584168, 1.011812, 257.288849, 144.142609)" x="60.541" y="99.989">tab</text>
  <text style="fill: rgb(51, 51, 51); font-family: Arial, sans-serif; font-size: 8.64681px; white-space: pre; transform-origin: 80.154px 100.448px;" transform="matrix(1.120211, 0, 0.000001, 1.168339, 146.500839, 107.69236)" x="60.541" y="99.989">escape</text>
  <text style="fill: rgb(51, 51, 51); font-family: Arial, sans-serif; font-size: 8.64681px; white-space: pre; transform-origin: 80.154px 100.448px;" transform="matrix(1.082041, -0.289932, 0.302389, 1.128529, 390.489014, 106.414963)" x="60.541" y="99.989">shift</text>
  <text style="fill: rgb(245, 37, 37); font-family: Arial, sans-serif; font-size: 8.55916px; white-space: pre; transform-box: fill-box; transform-origin: 50% 50%;" transform="matrix(1.082041, 0.289932, -0.302388, 1.128529, 211.964035, 128.002197)" x="60.541" y="99.989">nav</text>
  <text style="fill: rgb(245, 37, 37); font-family: Arial, sans-serif; font-size: 8.55916px; white-space: pre;" transform="matrix(1.082041, -0.289932, 0.302389, 1.128529, 363.910248, 128.035995)" x="60.541" y="99.989">sym</text>
  <text style="fill: rgb(47, 46, 46); font-family: Arial, sans-serif; font-size: 8.55916px; white-space: pre;" transform="matrix(1.120211, 0, 0.000001, 1.168339, -41.604065, -91.878464)" x="60.541" y="99.989">BASE</text>
  <text style="fill: rgb(245, 37, 37); font-family: Arial, sans-serif; font-size: 8.55916px; white-space: pre;" transform="matrix(1.120211, 0, 0.000001, 1.168339, -40.792988, -75.523071)" x="60.541" y="99.989">(hold)</text>
</svg>